<svg width="33" height="33" viewBox="0 0 33 33" fill="none" xmlns="http://www.w3.org/2000/svg">
<path fill-rule="evenodd" clip-rule="evenodd" d="M3.25018 1.24418C3.25018 1.03328 3.42842 0.862305 3.64829 0.862305H32.3116C32.5315 0.862305 32.7097 1.03328 32.7097 1.24418V28.8665C32.7097 29.0774 32.5315 29.2484 32.3116 29.2484C32.0918 29.2484 31.9135 29.0774 31.9135 28.8665V1.62606H3.64829C3.42842 1.62606 3.25018 1.45508 3.25018 1.24418Z" fill="white" stroke="white" stroke-width="0.5" stroke-linecap="round" stroke-linejoin="round"/>
<path d="M3.66797 29.4243L3.79297 29.4243L3.79297 29.2993L3.79297 5.5404L5.41886 7.16629C5.62192 7.36934 5.95114 7.36934 6.1542 7.16629C6.35725 6.96323 6.35726 6.63401 6.1542 6.43095L3.64068 3.91743C3.43762 3.71437 3.1084 3.71437 2.90534 3.91743L0.391825 6.43095C0.188767 6.63401 0.188768 6.96323 0.391824 7.16629C0.594882 7.36934 0.924103 7.36934 1.12716 7.16629L2.75305 5.5404L2.75305 29.2993L2.75305 29.4243L2.87805 29.4243L3.66797 29.4243Z" fill="white" stroke="white" stroke-width="0.25"/>
<path d="M2.75208 29.6943V29.8193H2.87708L26.7604 29.8193L25.1263 31.445C24.9221 31.6481 24.9221 31.9777 25.1263 32.1808C25.3301 32.3835 25.6602 32.3835 25.8641 32.1808L28.3907 29.6672C28.5949 29.4641 28.5949 29.1346 28.3907 28.9315L25.8641 26.4179C25.6602 26.2152 25.3301 26.2152 25.1263 26.4179C24.9221 26.621 24.9221 26.9506 25.1263 27.1537L26.7604 28.7794L2.87708 28.7794H2.75208V28.9044V29.6943Z" fill="white" stroke="white" stroke-width="0.25"/>
<path fill-rule="evenodd" clip-rule="evenodd" d="M14.1625 0.977986C14.3167 1.13223 14.3167 1.3823 14.1625 1.53655L9.42296 6.27608C9.26872 6.43032 9.01864 6.43032 8.8644 6.27608C8.71016 6.12184 8.71016 5.87176 8.8644 5.71752L13.6039 0.977986C13.7582 0.823744 14.0083 0.823744 14.1625 0.977986Z" fill="white" stroke="white" stroke-width="0.5" stroke-linecap="round" stroke-linejoin="round"/>
<path fill-rule="evenodd" clip-rule="evenodd" d="M32.4624 19.8046C32.6167 19.9589 32.6167 20.209 32.4624 20.3632L28.1178 24.7078C27.9636 24.862 27.7135 24.862 27.5593 24.7078C27.405 24.5535 27.405 24.3035 27.5593 24.1492L31.9039 19.8046C32.0581 19.6504 32.3082 19.6504 32.4624 19.8046Z" fill="white" stroke="white" stroke-width="0.5" stroke-linecap="round" stroke-linejoin="round"/>
<path fill-rule="evenodd" clip-rule="evenodd" d="M20.0851 0.976213C20.2403 1.12947 20.2419 1.37954 20.0886 1.53476L9.81963 11.9354C9.66637 12.0906 9.4163 12.0922 9.26108 11.939C9.10586 11.7857 9.10427 11.5356 9.25752 11.3804L19.5265 0.979771C19.6798 0.824549 19.9298 0.822957 20.0851 0.976213Z" fill="white" stroke="white" stroke-width="0.5" stroke-linecap="round" stroke-linejoin="round"/>
<path fill-rule="evenodd" clip-rule="evenodd" d="M32.594 13.2212C32.7482 13.3754 32.7482 13.6255 32.594 13.7797L22.5883 23.7854C22.434 23.9396 22.184 23.9396 22.0297 23.7854C21.8755 23.6312 21.8755 23.3811 22.0297 23.2268L32.0354 13.2212C32.1896 13.0669 32.4397 13.0669 32.594 13.2212Z" fill="white" stroke="white" stroke-width="0.5" stroke-linecap="round" stroke-linejoin="round"/>
<path fill-rule="evenodd" clip-rule="evenodd" d="M26.4085 1.11135C26.5615 1.26683 26.5595 1.5169 26.404 1.66989L9.94731 17.8633C9.79183 18.0163 9.54176 18.0143 9.38877 17.8588C9.23577 17.7033 9.23779 17.4533 9.39327 17.3003L25.85 1.10685C26.0055 0.953854 26.2555 0.95587 26.4085 1.11135Z" fill="white" stroke="white" stroke-width="0.5" stroke-linecap="round" stroke-linejoin="round"/>
<path fill-rule="evenodd" clip-rule="evenodd" d="M32.5941 7.03365C32.7483 7.18789 32.7483 7.43797 32.5941 7.59221L16.0057 24.1806C15.8515 24.3348 15.6014 24.3348 15.4472 24.1806C15.2929 24.0263 15.2929 23.7763 15.4472 23.622L32.0355 7.03365C32.1898 6.87941 32.4399 6.87941 32.5941 7.03365Z" fill="white" stroke="white" stroke-width="0.5" stroke-linecap="round" stroke-linejoin="round"/>
<path fill-rule="evenodd" clip-rule="evenodd" d="M32.3308 1.10909C32.485 1.26333 32.485 1.51341 32.3308 1.66765L9.68633 24.3121C9.53208 24.4663 9.28201 24.4663 9.12777 24.3121C8.97352 24.1579 8.97352 23.9078 9.12777 23.7535L31.7722 1.10909C31.9265 0.954848 32.1765 0.954848 32.3308 1.10909Z" fill="white" stroke="white" stroke-width="0.5" stroke-linecap="round" stroke-linejoin="round"/>
</svg>
